<svg xmlns="http://www.w3.org/2000/svg" version="1.1" xmlns:xlink="http://www.w3.org/1999/xlink" xmlns:svgjs="http://svgjs.dev/svgjs" width="1000" height="318" viewBox="0 0 1000 318"><g transform="matrix(1,0,0,1,-0.6060606060606233,-0.2655113810203886)"><svg viewBox="0 0 396 126" data-background-color="#046380" preserveAspectRatio="xMidYMid meet" height="318" width="1000" xmlns="http://www.w3.org/2000/svg" xmlns:xlink="http://www.w3.org/1999/xlink"><g id="tight-bounds" transform="matrix(1,0,0,1,0.2400000000000091,0.10520262266845748)"><svg viewBox="0 0 395.52 125.78959475466306" height="125.78959475466306" width="395.52"><g><svg viewBox="0 0 623.2566572778271 198.21804800547076" height="125.78959475466306" width="395.52"><g><rect width="8.992034061337813" height="144.1455414222128" x="195.20526703497674" y="27.03625329162898" fill="#001f3f" opacity="1" stroke-width="0" stroke="transparent" fill-opacity="1" class="rect-r$-0" data-fill-palette-color="primary" rx="1%" id="r$-0" data-palette-color="#001f3f"></rect></g><g transform="matrix(1,0,0,1,227.73665727782716,27.394824290191693)"><svg viewBox="0 0 395.52 143.42839942508738" height="143.42839942508738" width="395.52"><g id="textblocktransform"><svg viewBox="0 0 395.52 143.42839942508738" height="143.42839942508738" width="395.52" id="textblock"><g><svg viewBox="0 0 395.52 99.71092436974789" height="99.71092436974789" width="395.52"><g transform="matrix(1,0,0,1,0,0)"><svg width="395.52" viewBox="3.55 -36.9 154.48999999999998 37.5" height="99.71092436974789" data-palette-color="#001f3f"><g class="wordmark-text-0" data-fill-palette-color="primary" id="text-0"><path d="M4.3-33.1L3.55-36.4 14.45-36.4Q18.05-36.4 20.83-35.27 23.6-34.15 25.15-31.75 26.7-29.35 26.7-25.4L26.7-25.4Q26.7-21.75 25.05-19.3 23.4-16.85 20.65-15.63 17.9-14.4 14.5-14.4L14.5-14.4 8.95-14.4 8.95 0 4.3 0 4.3-33.1ZM14.45-32.95L8.95-32.95 8.95-17.8 14.4-17.8Q17.85-17.8 19.85-19.9 21.85-22 21.85-25.4L21.85-25.4Q21.85-28.95 19.95-30.95 18.05-32.95 14.45-32.95L14.45-32.95ZM42.3-36.4L46.85-36.4 59.45 0 54.3 0 50.1-12.5 38.1-12.5 33.85 0 29.65 0 42.3-36.4ZM48.95-15.9L44.15-30.3 39.25-15.9 48.95-15.9ZM79.2 0.6L79.2 0.6Q74.9 0.6 71.77-0.9 68.64-2.4 66.59-4.98 64.55-7.55 63.57-10.8 62.59-14.05 62.59-17.5L62.59-17.5Q62.59-21.25 63.7-24.73 64.8-28.2 66.92-30.95 69.05-33.7 72.25-35.3 75.45-36.9 79.65-36.9L79.65-36.9Q81.4-36.9 83.47-36.48 85.55-36.05 87.45-35.2 89.34-34.35 90.55-32.95L90.55-32.95 87.95-30.05Q86.5-31.65 84.07-32.52 81.65-33.4 79.55-33.4L79.55-33.4Q76.65-33.4 74.45-32.08 72.25-30.75 70.75-28.5 69.25-26.25 68.47-23.45 67.7-20.65 67.7-17.75L67.7-17.75Q67.7-13.25 69.14-9.98 70.59-6.7 73.25-4.93 75.9-3.15 79.5-3.15L79.5-3.15Q81.59-3.15 84.05-3.75 86.5-4.35 89.09-5.65L89.09-5.65 90.65-2.8Q89.2-1.75 87.17-1 85.15-0.25 83.05 0.18 80.95 0.6 79.2 0.6ZM95.14-36.4L95.14-36.4 100.49-36.4 100.49 0 95.84 0 95.84-33.1Q95.84-33.15 95.67-33.9 95.49-34.65 95.34-35.45 95.19-36.25 95.14-36.4ZM109.19-33.1L108.49-36.4 128.64-36.4 128.64-32.95 113.84-32.95 113.84-20.4 125.59-20.4 125.59-17 113.84-17 113.84 0 109.19 0 109.19-33.1ZM131.99-36.4L137.39-36.4 145.84-22.25 153.69-36.4 158.04-36.4 147.59-18 147.59 0 142.84 0 142.84-18 131.99-36.4Z" fill="#001f3f" data-fill-palette-color="primary"></path></g></svg></g></svg></g><g transform="matrix(1,0,0,1,0,123.25028055126049)"><svg viewBox="0 0 232.209792 20.178118873826904" height="20.178118873826904" width="232.209792"><g transform="matrix(1,0,0,1,0,0)"><svg width="232.209792" viewBox="1.6 -38.5 575.34 50" height="20.178118873826904" data-palette-color="#001f3f"><path d="M14-36.9L14-36.9Q16.5-36.9 18.88-36.2 21.25-35.5 23.4-34.2L23.4-34.2 21.1-30.85Q19.55-32 17.73-32.68 15.9-33.35 13.95-33.35L13.95-33.35Q11.3-33.35 9.45-32.02 7.6-30.7 7.6-27.8L7.6-27.8Q7.6-26.2 8.47-25.08 9.35-23.95 10.8-23.1 12.25-22.25 13.95-21.45L13.95-21.45Q15.7-20.65 17.53-19.7 19.35-18.75 20.88-17.48 22.4-16.2 23.33-14.38 24.25-12.55 24.25-9.9L24.25-9.9Q24.25-6.3 22.5-3.98 20.75-1.65 17.9-0.53 15.05 0.6 11.75 0.6L11.75 0.6Q9.05 0.6 6.53-0.13 4-0.85 1.6-2.1L1.6-2.1 3.4-6.2Q5.05-4.8 7.4-3.9 9.75-3 11.9-3L11.9-3Q13.55-3 15.25-3.63 16.95-4.25 18.1-5.65 19.25-7.05 19.25-9.25L19.25-9.25Q19.25-11.45 18.2-12.88 17.15-14.3 15.45-15.28 13.75-16.25 11.85-17.15L11.85-17.15Q10.2-17.95 8.55-18.8 6.9-19.65 5.55-20.8 4.2-21.95 3.4-23.55 2.6-25.15 2.6-27.4L2.6-27.4Q2.6-30.55 4.28-32.65 5.95-34.75 8.58-35.83 11.2-36.9 14-36.9ZM35.05-33.2L35.05-33.2Q35.05-31.95 34.17-31.05 33.3-30.15 32-30.15L32-30.15Q30.75-30.15 29.87-31.05 29-31.95 29-33.2L29-33.2Q29-34.45 29.87-35.35 30.75-36.25 32-36.25L32-36.25Q33.25-36.25 34.15-35.35 35.05-34.45 35.05-33.2ZM29.4-24.85L34.15-24.85 34.15 0 30 0 30-21.9 29.4-24.85ZM40.74-24.7L45.3-25.2Q45.64-24.4 45.89-23.5 46.14-22.6 46.24-21.75L46.24-21.75Q47.59-23.05 49.55-24.25 51.49-25.45 53.49-25.45L53.49-25.45Q55.89-25.45 57.59-24.48 59.3-23.5 60.34-21.3L60.34-21.3Q61.84-22.8 63.89-24.13 65.94-25.45 68.09-25.45L68.09-25.45Q70.84-25.45 72.52-24.3 74.19-23.15 74.94-21.18 75.69-19.2 75.69-16.6L75.69-16.6 75.69 0 71.55 0 71.55-15.25Q71.55-16.75 71.32-18.25 71.09-19.75 70.22-20.75 69.34-21.75 67.39-21.75L67.39-21.75Q65.64-21.75 63.95-20.63 62.25-19.5 61.09-18.35L61.09-18.35 61.09 0 56.95 0 56.95-15.25Q56.95-16.8 56.72-18.28 56.5-19.75 55.62-20.75 54.75-21.75 52.8-21.75L52.8-21.75Q51.7-21.75 50.55-21.23 49.39-20.7 48.34-19.93 47.3-19.15 46.49-18.45L46.49-18.45 46.49 0 42.34 0 42.34-18.05Q42.34-19.1 42.17-20.3 41.99-21.5 41.64-22.65 41.3-23.8 40.74-24.7L40.74-24.7ZM82.29-24.65L86.69-25.2Q87.09-24.4 87.32-23.53 87.54-22.65 87.64-21.8L87.64-21.8Q88.94-23.45 90.87-24.43 92.79-25.4 94.94-25.4L94.94-25.4Q97.59-25.4 99.54-24.3 101.49-23.2 102.77-21.33 104.04-19.45 104.67-17.18 105.29-14.9 105.29-12.55L105.29-12.55Q105.29-9.15 104.07-6.13 102.84-3.1 100.37-1.23 97.89 0.65 94.14 0.65L94.14 0.65Q92.44 0.65 90.77 0.1 89.09-0.45 87.84-1.6L87.84-1.6Q87.94-0.9 87.94-0.2 87.94 0.5 87.94 0.9L87.94 0.9 87.94 7.85 88.64 10.8 83.84 10.8 83.84-17.6Q83.84-18.65 83.69-19.95 83.54-21.25 83.22-22.5 82.89-23.75 82.29-24.65L82.29-24.65ZM93.69-21.75L93.69-21.75Q91.99-21.75 90.49-20.73 88.99-19.7 87.94-18.45L87.94-18.45 87.94-10.05Q87.94-8.1 88.57-6.43 89.19-4.75 90.54-3.75 91.89-2.75 94.04-2.75L94.04-2.75Q95.99-2.75 97.32-3.6 98.64-4.45 99.44-5.85 100.24-7.25 100.57-8.93 100.89-10.6 100.89-12.25L100.89-12.25Q100.89-14 100.52-15.68 100.14-17.35 99.29-18.73 98.44-20.1 97.07-20.93 95.69-21.75 93.69-21.75ZM111.14-38.1L115.94-38.1 115.94 0 111.79 0 111.79-35.2 111.14-38.1ZM129.39-33.2L129.39-33.2Q129.39-31.95 128.51-31.05 127.64-30.15 126.34-30.15L126.34-30.15Q125.09-30.15 124.21-31.05 123.34-31.95 123.34-33.2L123.34-33.2Q123.34-34.45 124.21-35.35 125.09-36.25 126.34-36.25L126.34-36.25Q127.59-36.25 128.49-35.35 129.39-34.45 129.39-33.2ZM123.74-24.85L128.49-24.85 128.49 0 124.34 0 124.34-21.9 123.74-24.85ZM147.84-38.5L147.84-38.5Q149.24-38.5 150.36-38.23 151.49-37.95 152.69-37.25L152.69-37.25 151.53-34.15Q150.88-34.75 149.86-35.08 148.84-35.4 147.94-35.4L147.94-35.4Q145.74-35.4 144.46-34.4 143.19-33.4 142.56-31.78 141.94-30.15 141.74-28.33 141.53-26.5 141.53-24.85L141.53-24.85 148.69-24.85 147.78-21.75 141.53-21.75 141.53 0 137.44 0 137.44-21.75 133.69-21.75 133.69-24.35Q134.49-24.45 135.31-24.53 136.13-24.6 136.74-25 137.34-25.4 137.53-26.35L137.53-26.35Q138.03-28.65 138.28-30.08 138.53-31.5 138.99-32.6 139.44-33.7 140.44-35L140.44-35Q141.69-36.6 143.53-37.55 145.38-38.5 147.84-38.5ZM147.68-24.85L152.18-24.85Q153.28-21.75 154.36-18.65 155.43-15.55 156.53-12.3L156.53-12.3Q157.08-10.6 157.66-8.88 158.23-7.15 158.78-5.45L158.78-5.45Q159.33-7.2 159.91-8.9 160.48-10.6 161.03-12.3L161.03-12.3Q162.13-15.55 163.21-18.65 164.28-21.75 165.38-24.85L165.38-24.85 169.28-24.85 160.48 0.1Q159.93 1.65 159.08 3.53 158.23 5.4 157.08 7.05 155.93 8.7 154.38 9.78 152.83 10.85 150.88 10.85L150.88 10.85 148.98 10.85 148.98 7.5Q149.13 7.5 149.26 7.5 149.38 7.5 149.53 7.5L149.53 7.5Q151.63 7.5 153.01 6.25 154.38 5 155.28 3.23 156.18 1.45 156.78-0.2L156.78-0.2 147.68-24.85ZM193.38-36.9L193.38-36.9Q195.88-36.9 198.25-36.2 200.63-35.5 202.78-34.2L202.78-34.2 200.48-30.85Q198.93-32 197.1-32.68 195.28-33.35 193.33-33.35L193.33-33.35Q190.68-33.35 188.83-32.02 186.98-30.7 186.98-27.8L186.98-27.8Q186.98-26.2 187.85-25.08 188.73-23.95 190.18-23.1 191.63-22.25 193.33-21.45L193.33-21.45Q195.08-20.65 196.9-19.7 198.73-18.75 200.25-17.48 201.78-16.2 202.7-14.38 203.63-12.55 203.63-9.9L203.63-9.9Q203.63-6.3 201.88-3.98 200.13-1.65 197.28-0.53 194.43 0.6 191.13 0.6L191.13 0.6Q188.43 0.6 185.9-0.13 183.38-0.85 180.98-2.1L180.98-2.1 182.78-6.2Q184.43-4.8 186.78-3.9 189.13-3 191.28-3L191.28-3Q192.93-3 194.63-3.63 196.33-4.25 197.48-5.65 198.63-7.05 198.63-9.25L198.63-9.25Q198.63-11.45 197.58-12.88 196.53-14.3 194.83-15.28 193.13-16.25 191.23-17.15L191.23-17.15Q189.58-17.95 187.93-18.8 186.28-19.65 184.93-20.8 183.58-21.95 182.78-23.55 181.98-25.15 181.98-27.4L181.98-27.4Q181.98-30.55 183.65-32.65 185.33-34.75 187.95-35.83 190.58-36.9 193.38-36.9ZM211.98-31.95L215.03-31.95Q214.68-30.25 214.4-28.43 214.13-26.6 214.03-24.85L214.03-24.85 220.53-24.85 219.68-21.7 214.03-21.7 214.03-5.8Q214.03-4.85 214.25-4.13 214.48-3.4 215.05-3.03 215.63-2.65 216.68-2.65L216.68-2.65Q217.48-2.65 218.28-2.8 219.08-2.95 219.83-3.15L219.83-3.15 220.53-0.35Q219.28 0 218.15 0.28 217.03 0.55 215.58 0.55L215.58 0.55Q212.38 0.55 211.13-1.15 209.88-2.85 209.88-5.9L209.88-5.9 209.88-21.7 206.18-21.7 206.18-24.2Q208.18-24.25 209.33-25.53 210.48-26.8 211.08-28.6 211.68-30.4 211.98-31.95L211.98-31.95ZM234.02 0.65L234.02 0.65Q230.37 0.65 227.9-1.18 225.42-3 224.2-5.95 222.97-8.9 222.97-12.25L222.97-12.25Q222.97-15.6 224.3-18.63 225.62-21.65 228.17-23.55 230.72-25.45 234.32-25.45L234.32-25.45Q238.02-25.45 240.5-23.65 242.97-21.85 244.2-18.9 245.42-15.95 245.42-12.55L245.42-12.55Q245.42-9.15 244.12-6.13 242.82-3.1 240.27-1.23 237.72 0.65 234.02 0.65ZM234.07-2.5L234.07-2.5Q236.02-2.5 237.35-3.43 238.67-4.35 239.5-5.85 240.32-7.35 240.67-9.08 241.02-10.8 241.02-12.4L241.02-12.4Q241.02-14.05 240.7-15.78 240.37-17.5 239.62-18.98 238.87-20.45 237.55-21.38 236.22-22.3 234.27-22.3L234.27-22.3Q232.32-22.3 231-21.38 229.67-20.45 228.87-18.95 228.07-17.45 227.72-15.73 227.37-14 227.37-12.4L227.37-12.4Q227.37-10.85 227.72-9.13 228.07-7.4 228.85-5.9 229.62-4.4 230.92-3.45 232.22-2.5 234.07-2.5ZM249.72-24.75L254.22-25.3Q255.12-23.1 255.37-20.65L255.37-20.65Q256.67-22.7 258.87-24 261.07-25.3 263.52-25.3L263.52-25.3 262.52-20.9Q260.12-20.9 258.45-19.65 256.77-18.4 255.47-16.5L255.47-16.5 255.47 0 251.32 0 251.32-18Q251.32-19 251.17-20.25 251.02-21.5 250.67-22.7 250.32-23.9 249.72-24.75L249.72-24.75ZM278.22-25.45L278.22-25.45Q281.22-25.45 283.27-24.23 285.32-23 286.34-20.83 287.37-18.65 287.37-15.75L287.37-15.75Q287.37-15.05 287.29-14.33 287.22-13.6 287.12-12.8L287.12-12.8 271.32-12.8Q271.32-8.05 273.42-5.45 275.52-2.85 279.02-2.85L279.02-2.85Q280.47-2.85 282.04-3.3 283.62-3.75 285.32-4.65L285.32-4.65 286.87-2.15Q285.12-0.75 282.92-0.05 280.72 0.65 278.47 0.65L278.47 0.65Q274.57 0.65 271.99-1.2 269.42-3.05 268.17-6 266.92-8.95 266.92-12.15L266.92-12.15Q266.92-14.65 267.62-17 268.32-19.35 269.74-21.28 271.17-23.2 273.27-24.33 275.37-25.45 278.22-25.45ZM277.82-22.3L277.82-22.3Q276.12-22.3 274.82-21.35 273.52-20.4 272.72-18.93 271.92-17.45 271.62-15.9L271.62-15.9 283.02-15.9Q283.07-18 282.44-19.43 281.82-20.85 280.64-21.58 279.47-22.3 277.82-22.3ZM304.61-36.4L311.36-36.4 320.21-12.75Q320.66-11.5 321.09-10.3 321.51-9.1 321.96-7.55L321.96-7.55Q322.36-9.05 322.76-10.23 323.16-11.4 323.61-12.6L323.61-12.6 332.41-36.4 338.46-36.4 338.46 0 333.86 0 333.86-26.35Q333.86-27.25 333.91-28.1 333.96-28.95 334.01-30L334.01-30Q333.71-29.2 333.36-28.35 333.01-27.5 332.71-26.65L332.71-26.65 322.91 0.05 320.11 0.05 310.21-26.9Q309.96-27.65 309.61-28.48 309.26-29.3 309.01-30L309.01-30Q309.11-29.05 309.14-28.25 309.16-27.45 309.16-26.6L309.16-26.6 309.16 0 305.36 0 305.36-33.1 304.61-36.4ZM355.46-25.45L355.46-25.45Q359.41-25.45 361.41-23.3 363.41-21.15 363.41-17.25L363.41-17.25 363.41-4.8Q363.41-3.75 363.81-3.38 364.21-3 364.76-3L364.76-3Q365.21-3 365.71-3.13 366.21-3.25 366.66-3.45L366.66-3.45 367.56-0.75Q366.76-0.3 365.54 0.08 364.31 0.45 363.01 0.45L363.01 0.45Q361.71 0.45 360.66-0.28 359.61-1 359.36-2.95L359.36-2.95Q357.91-1.4 355.96-0.43 354.01 0.55 351.86 0.55L351.86 0.55Q348.91 0.55 346.96-1.2 345.01-2.95 345.01-6L345.01-6Q345.01-8.85 346.38-10.55 347.76-12.25 349.96-13.1 352.16-13.95 354.63-14.25 357.11-14.55 359.26-14.55L359.26-14.55 359.26-17.2Q359.26-19.3 358.41-20.75 357.56-22.2 355.11-22.2L355.11-22.2Q353.21-22.2 351.46-21.45 349.71-20.7 347.96-19.25L347.96-19.25 345.91-22.2Q347.96-23.85 350.41-24.65 352.86-25.45 355.46-25.45ZM359.26-9.7L359.26-11.3Q357.91-11.3 356.21-11.18 354.51-11.05 352.91-10.58 351.31-10.1 350.29-9.05 349.26-8 349.26-6.15L349.26-6.15Q349.26-4.5 350.38-3.73 351.51-2.95 353.21-2.95L353.21-2.95Q355.01-2.95 356.36-3.95 357.71-4.95 358.49-6.5 359.26-8.05 359.26-9.7L359.26-9.7ZM369.86-24.65L374.41-25.25Q374.76-24.4 375.01-23.5 375.26-22.6 375.36-21.7L375.36-21.7Q376.86-23.2 378.91-24.33 380.96-25.45 383.11-25.45L383.11-25.45Q385.86-25.45 387.53-24.3 389.21-23.15 389.96-21.18 390.71-19.2 390.71-16.6L390.71-16.6 390.71 0 386.61 0 386.61-15.25Q386.61-16.8 386.38-18.3 386.16-19.8 385.28-20.78 384.41-21.75 382.41-21.75L382.41-21.75Q381.21-21.75 379.96-21.28 378.71-20.8 377.61-20.05 376.51-19.3 375.61-18.45L375.61-18.45 375.61 0 371.51 0 371.51-17.6Q371.51-18.6 371.36-19.93 371.21-21.25 370.86-22.53 370.51-23.8 369.86-24.65L369.86-24.65ZM407.5-25.45L407.5-25.45Q411.46-25.45 413.46-23.3 415.46-21.15 415.46-17.25L415.46-17.25 415.46-4.8Q415.46-3.75 415.86-3.38 416.25-3 416.81-3L416.81-3Q417.25-3 417.75-3.13 418.25-3.25 418.71-3.45L418.71-3.45 419.61-0.75Q418.81-0.3 417.58 0.08 416.36 0.45 415.06 0.45L415.06 0.45Q413.75 0.45 412.71-0.28 411.66-1 411.41-2.95L411.41-2.95Q409.96-1.4 408-0.43 406.06 0.55 403.91 0.55L403.91 0.55Q400.96 0.55 399-1.2 397.06-2.95 397.06-6L397.06-6Q397.06-8.85 398.43-10.55 399.81-12.25 402-13.1 404.21-13.95 406.68-14.25 409.16-14.55 411.31-14.55L411.31-14.55 411.31-17.2Q411.31-19.3 410.46-20.75 409.61-22.2 407.16-22.2L407.16-22.2Q405.25-22.2 403.5-21.45 401.75-20.7 400-19.25L400-19.25 397.96-22.2Q400-23.85 402.46-24.65 404.91-25.45 407.5-25.45ZM411.31-9.7L411.31-11.3Q409.96-11.3 408.25-11.18 406.56-11.05 404.96-10.58 403.36-10.1 402.33-9.05 401.31-8 401.31-6.15L401.31-6.15Q401.31-4.5 402.43-3.73 403.56-2.95 405.25-2.95L405.25-2.95Q407.06-2.95 408.41-3.95 409.75-4.95 410.53-6.5 411.31-8.05 411.31-9.7L411.31-9.7ZM430.55-25.45L430.55-25.45Q432-25.45 433.33-25.1 434.65-24.75 436.05-24.75L436.05-24.75Q437.95-24.75 439.9-24.98 441.85-25.2 444-25.5L444-25.5 443.1-21.9 439.1-21.9Q438.75-21.9 438.38-21.93 438-21.95 437.65-22L437.65-22Q438.5-20.85 438.93-19.6 439.35-18.35 439.35-17.05L439.35-17.05Q439.35-14.55 438.25-12.55 437.15-10.55 435.03-9.43 432.9-8.3 429.85-8.3L429.85-8.3Q428.6-8.3 427.65-7.65 426.7-7 426.7-5.65L426.7-5.65Q426.7-4.75 427.18-4.38 427.65-4 428.35-3.95 429.05-3.9 429.75-3.9L429.75-3.9 434.6-3.9Q435.9-3.9 437.28-3.73 438.65-3.55 439.8-3.03 440.95-2.5 441.68-1.48 442.4-0.45 442.4 1.3L442.4 1.3Q442.4 4.05 441.3 6 440.2 7.95 438.35 9.18 436.5 10.4 434.2 10.95 431.9 11.5 429.55 11.5L429.55 11.5Q428.15 11.5 426.6 11.18 425.05 10.85 423.68 10.13 422.3 9.4 421.45 8.2 420.6 7 420.6 5.2L420.6 5.2Q420.6 3.3 421.78 1.85 422.95 0.4 424.5-0.6L424.5-0.6 424.5-0.75Q423.4-1.3 422.78-2.27 422.15-3.25 422.15-4.35L422.15-4.35Q422.15-5 422.65-5.58 423.15-6.15 423.93-7.1 424.7-8.05 425.6-9.7L425.6-9.7Q423.85-10.9 422.8-12.78 421.75-14.65 421.75-16.8L421.75-16.8Q421.75-19.25 422.95-21.2 424.15-23.15 426.18-24.3 428.2-25.45 430.55-25.45ZM430.6-22.45L430.6-22.45Q428.75-22.45 427.43-20.83 426.1-19.2 426.1-16.85L426.1-16.85Q426.1-14.45 427.43-12.83 428.75-11.2 430.55-11.2L430.55-11.2Q432.6-11.2 433.83-12.75 435.05-14.3 435.05-16.8L435.05-16.8Q435.05-19.2 433.73-20.83 432.4-22.45 430.6-22.45ZM433.45 0.05L427.45 0.05Q426.5 0.75 425.7 1.98 424.9 3.2 424.9 4.35L424.9 4.35Q424.9 5.55 425.78 6.4 426.65 7.25 427.93 7.68 429.2 8.1 430.3 8.1L430.3 8.1Q432.05 8.1 433.98 7.6 435.9 7.1 437.23 5.93 438.55 4.75 438.55 2.75L438.55 2.75Q438.55 1.45 437.75 0.88 436.95 0.3 435.78 0.18 434.6 0.05 433.45 0.05L433.45 0.05ZM456.9-25.45L456.9-25.45Q459.9-25.45 461.95-24.23 464-23 465.03-20.83 466.05-18.65 466.05-15.75L466.05-15.75Q466.05-15.05 465.98-14.33 465.9-13.6 465.8-12.8L465.8-12.8 450-12.8Q450-8.05 452.1-5.45 454.2-2.85 457.7-2.85L457.7-2.85Q459.15-2.85 460.73-3.3 462.3-3.75 464-4.65L464-4.65 465.55-2.15Q463.8-0.75 461.6-0.05 459.4 0.65 457.15 0.65L457.15 0.65Q453.25 0.65 450.68-1.2 448.1-3.05 446.85-6 445.6-8.95 445.6-12.15L445.6-12.15Q445.6-14.65 446.3-17 447-19.35 448.43-21.28 449.85-23.2 451.95-24.33 454.05-25.45 456.9-25.45ZM456.5-22.3L456.5-22.3Q454.8-22.3 453.5-21.35 452.2-20.4 451.4-18.93 450.6-17.45 450.3-15.9L450.3-15.9 461.7-15.9Q461.75-18 461.13-19.43 460.5-20.85 459.33-21.58 458.15-22.3 456.5-22.3ZM470.5-24.7L475.05-25.2Q475.4-24.4 475.65-23.5 475.9-22.6 476-21.75L476-21.75Q477.35-23.05 479.3-24.25 481.25-25.45 483.25-25.45L483.25-25.45Q485.65-25.45 487.35-24.48 489.05-23.5 490.1-21.3L490.1-21.3Q491.6-22.8 493.65-24.13 495.7-25.45 497.85-25.45L497.85-25.45Q500.6-25.45 502.27-24.3 503.95-23.15 504.7-21.18 505.45-19.2 505.45-16.6L505.45-16.6 505.45 0 501.3 0 501.3-15.25Q501.3-16.75 501.07-18.25 500.85-19.75 499.97-20.75 499.1-21.75 497.15-21.75L497.15-21.75Q495.4-21.75 493.7-20.63 492-19.5 490.85-18.35L490.85-18.35 490.85 0 486.7 0 486.7-15.25Q486.7-16.8 486.47-18.28 486.25-19.75 485.37-20.75 484.5-21.75 482.55-21.75L482.55-21.75Q481.45-21.75 480.3-21.23 479.15-20.7 478.1-19.93 477.05-19.15 476.25-18.45L476.25-18.45 476.25 0 472.1 0 472.1-18.05Q472.1-19.1 471.92-20.3 471.75-21.5 471.4-22.65 471.05-23.8 470.5-24.7L470.5-24.7ZM523.05-25.45L523.05-25.45Q526.05-25.45 528.1-24.23 530.14-23 531.17-20.83 532.2-18.65 532.2-15.75L532.2-15.75Q532.2-15.05 532.12-14.33 532.05-13.6 531.95-12.8L531.95-12.8 516.14-12.8Q516.14-8.05 518.25-5.45 520.35-2.85 523.85-2.85L523.85-2.85Q525.3-2.85 526.87-3.3 528.45-3.75 530.14-4.65L530.14-4.65 531.7-2.15Q529.95-0.75 527.75-0.05 525.55 0.65 523.3 0.65L523.3 0.65Q519.39 0.65 516.82-1.2 514.25-3.05 513-6 511.75-8.95 511.75-12.15L511.75-12.15Q511.75-14.65 512.45-17 513.14-19.35 514.57-21.28 516-23.2 518.1-24.33 520.2-25.45 523.05-25.45ZM522.64-22.3L522.64-22.3Q520.95-22.3 519.64-21.35 518.35-20.4 517.55-18.93 516.75-17.45 516.45-15.9L516.45-15.9 527.85-15.9Q527.89-18 527.27-19.43 526.64-20.85 525.47-21.58 524.3-22.3 522.64-22.3ZM536.59-24.65L541.14-25.25Q541.49-24.4 541.74-23.5 541.99-22.6 542.09-21.7L542.09-21.7Q543.59-23.2 545.64-24.33 547.69-25.45 549.84-25.45L549.84-25.45Q552.59-25.45 554.27-24.3 555.94-23.15 556.69-21.18 557.44-19.2 557.44-16.6L557.44-16.6 557.44 0 553.34 0 553.34-15.25Q553.34-16.8 553.12-18.3 552.89-19.8 552.02-20.78 551.14-21.75 549.14-21.75L549.14-21.75Q547.94-21.75 546.69-21.28 545.44-20.8 544.34-20.05 543.24-19.3 542.34-18.45L542.34-18.45 542.34 0 538.24 0 538.24-17.6Q538.24-18.6 538.09-19.93 537.94-21.25 537.59-22.53 537.24-23.8 536.59-24.65L536.59-24.65ZM568.39-31.95L571.44-31.95Q571.09-30.25 570.81-28.43 570.54-26.6 570.44-24.85L570.44-24.85 576.94-24.85 576.09-21.7 570.44-21.7 570.44-5.8Q570.44-4.85 570.66-4.13 570.89-3.4 571.46-3.03 572.04-2.65 573.09-2.65L573.09-2.65Q573.89-2.65 574.69-2.8 575.49-2.95 576.24-3.15L576.24-3.15 576.94-0.35Q575.69 0 574.56 0.28 573.44 0.55 571.99 0.55L571.99 0.55Q568.79 0.55 567.54-1.15 566.29-2.85 566.29-5.9L566.29-5.9 566.29-21.7 562.59-21.7 562.59-24.2Q564.59-24.25 565.74-25.53 566.89-26.8 567.49-28.6 568.09-30.4 568.39-31.95L568.39-31.95Z" opacity="1" transform="matrix(1,0,0,1,0,0)" fill="#001f3f" class="slogan-text-1" data-fill-palette-color="secondary" id="text-1"></path></svg></g></svg></g></svg></g></svg></g><g><svg viewBox="0 0 171.66591085346414 198.21804800547076" height="198.21804800547076" width="171.66591085346414"><g><svg xmlns="http://www.w3.org/2000/svg" xmlns:xlink="http://www.w3.org/1999/xlink" version="1.1" x="0" y="0" viewBox="9.547 3.29 80.906 93.41999999999999" enable-background="new 0 0 100 100" xml:space="preserve" height="198.21804800547076" width="171.66591085346414" class="icon-icon-0" data-fill-palette-color="accent" id="icon-0"></svg></g></svg></g></svg></g><defs></defs><mask id="8883c089-2757-4e7f-bdec-ded235394af7"><g id="SvgjsG1014"><svg viewBox="0 0 395.52 125.78959475466306" height="125.78959475466306" width="395.52"><g><svg viewBox="0 0 623.2566572778271 198.21804800547076" height="125.78959475466306" width="395.52"><g></g><g transform="matrix(1,0,0,1,227.73665727782716,27.394824290191693)"><svg viewBox="0 0 395.52 143.42839942508738" height="143.42839942508738" width="395.52"><g id="SvgjsG1012"><svg viewBox="0 0 395.52 143.42839942508738" height="143.42839942508738" width="395.52" id="SvgjsSvg1011"><g><svg viewBox="0 0 395.52 99.71092436974789" height="99.71092436974789" width="395.52"><g transform="matrix(1,0,0,1,0,0)"><svg width="395.52" viewBox="3.55 -36.9 154.48999999999998 37.5" height="99.71092436974789" data-palette-color="#001f3f"><g class="wordmark-text-0" data-fill-palette-color="primary" id="SvgjsG1010"></g></svg></g></svg></g><g transform="matrix(1,0,0,1,0,123.25028055126049)"><svg viewBox="0 0 232.209792 20.178118873826904" height="20.178118873826904" width="232.209792"><g transform="matrix(1,0,0,1,0,0)"><svg width="232.209792" viewBox="1.6 -38.5 575.34 50" height="20.178118873826904" data-palette-color="#001f3f"></svg></g></svg></g></svg></g></svg></g><g><svg viewBox="0 0 171.66591085346414 198.21804800547076" height="198.21804800547076" width="171.66591085346414"><g><svg xmlns="http://www.w3.org/2000/svg" xmlns:xlink="http://www.w3.org/1999/xlink" version="1.1" x="0" y="0" viewBox="9.547 3.29 80.906 93.41999999999999" enable-background="new 0 0 100 100" xml:space="preserve" height="198.21804800547076" width="171.66591085346414" class="icon-icon-0" data-fill-palette-color="accent" id="SvgjsSvg1008"><g fill="white"><path d="M31.112 39.094v21.812L49.999 71.81l18.89-10.903V39.094l-18.89-10.905L31.112 39.094zM60.925 56.308l-10.926 6.307-10.924-6.307V43.692l10.924-6.308 10.926 6.308V56.308z" fill="white"></path><path d="M49.999 3.29L9.547 26.646v46.709L49.999 96.71l40.454-23.355V26.646L49.999 3.29zM82.19 68.584L49.999 87.169 17.811 68.584v-37.17l32.188-18.585L82.19 31.414V68.584z" fill="white"></path><path d="M20.368 32.89v34.218l29.631 17.108 29.634-17.108V32.89L49.999 15.782 20.368 32.89zM71.446 62.383l-21.447 12.38-21.444-12.38V37.618l21.444-12.382 21.447 12.382V62.383z" fill="white"></path></g></svg></g></svg></g></svg></g><defs><mask></mask></defs></svg></g></mask><linearGradient x1="0" x2="1" y1="0.578" y2="0.595" id="28fa4ccd-268c-4e33-ab5c-642e0a8e4617"><stop stop-color="#6ee2f5" offset="0"></stop><stop stop-color="#6454f0" offset="1"></stop></linearGradient><rect width="395.52" height="125.78959475466306" fill="url(#28fa4ccd-268c-4e33-ab5c-642e0a8e4617)" mask="url(#8883c089-2757-4e7f-bdec-ded235394af7)" data-fill-palette-color="accent"></rect></svg><rect width="395.52" height="125.78959475466306" fill="none" stroke="none" visibility="hidden"></rect></g></svg></g></svg>